<svg id="Capa_1" enable-background="new 0 0 497 497" height="512" viewBox="0 0 497 497" width="512" xmlns="http://www.w3.org/2000/svg"><g><path d="m367.903 240.276c-11.918 0-20.631 25.446-46.902 25.447-14.136.001-56.796-.286-56.796-.286 28.008-17.094 46.27-46.163 46.27-83.198 0-60.891-40.208-120.253-110.253-120.253-34.473 0-61.712 14.384-80.495 36.246-11.974 19.073-21.758 49.132-21.758 84.007 0 38.659 26.605 68.36 58.759 83.881 3.991 1.927 4.183 9.607.306 11.934-41.137 24.677-60.348 50.748-60.348 89.721 0 42.622 35.649 74.002 83.536 74.002h150c30.496 0 61.862-14.33 85.578-28.5 15.424-16.991 24.675-38.661 24.675-62.268 0-64.842-54.615-110.733-72.572-110.733z" fill="#ffe07d"/><path d="m180.223 434.777c-42.554 0-76.536-29.713-76.536-67.002 0-31.459 16.067-65.044 72.807-89.721 5.349-2.326 5.083-10.007-.422-11.934-44.352-15.521-71.102-45.223-71.102-83.881 0-34.875 5.078-62.662 14.758-84.007-19.382 22.56-29.758 53.083-29.758 84.007 0 43.537 25.238 76.063 61.879 91.069-47.318 28.155-63.162 60.036-63.162 94.467 0 45.288 40.982 82.002 91.536 82.002h150c34.539 0 65.362-14.231 85.578-36.5-23.716 14.17-55.081 21.5-85.578 21.5-28.97 0-125.949 0-150 0z" fill="#ffc250"/><path d="m433.679 189.445c0-7.326 2.099-14.158 5.718-19.943-10.638 6.656-17.718 18.469-17.718 31.943 0 20.799 16.861 37.66 37.66 37.66 13.473 0 25.287-7.08 31.942-17.718-5.784 3.619-12.617 5.718-19.942 5.718-20.798 0-37.66-16.861-37.66-37.66z" fill="#d3effd"/><path d="m71.6 401.751c0-10.232 3.201-19.712 8.643-27.512-12.475 8.702-20.643 23.149-20.643 39.512 0 26.595 21.56 48.155 48.155 48.155 16.363 0 30.81-8.168 39.512-20.642-7.8 5.442-17.28 8.642-27.512 8.642-26.596 0-48.155-21.56-48.155-48.155z" fill="#d3effd"/><path d="m313.851 371.907c0-2.31.417-4.517 1.147-6.577-7.655 2.711-13.147 9.993-13.147 18.577 0 10.893 8.831 19.724 19.724 19.724 8.583 0 15.866-5.493 18.577-13.147-2.06.73-4.267 1.147-6.577 1.147-10.893 0-19.724-8.831-19.724-19.724z" fill="#fff0af"/><path d="m440.316 350.782c.103.146.159.227.159.227l-50.338 82.91c9.875 9.926 29.125 15.859 44.233 15.859 11.994 0 25.841-6.119 33.788-14.854 6.563-9.002 10.445-20.084 10.445-32.078 0-24.458-16.104-45.154-38.287-52.064z" fill="#e6f7fe"/><path d="m415.8 413.277c15.424-16.991 24.675-38.661 24.675-62.268 0 0-.056-.081-.159-.227-5.128-1.598-10.582-2.459-16.236-2.459-11.993 0-23.075 3.882-32.078 10.445-8.51 7.69-15.192 20.87-15.192 32.863 0 15.005 5.617 29.839 20.618 37.664 6.793-4.688 12.965-10.062 18.372-16.018z" fill="#fff6cf"/><path d="m436.08 445.368c-15.108 0-28.778-6.147-38.652-16.073l-15.001 8.716c10.001 11.834 24.945 19.357 41.653 19.357 18.118 0 34.164-8.845 44.078-22.445-9.002 6.563-20.084 10.445-32.078 10.445z" fill="#d3effd"/><path d="m381.558 390.845c0-11.994 3.882-23.075 10.445-32.078-13.6 9.914-22.445 25.959-22.445 44.078 0 13.404 4.846 25.671 12.87 35.165 5.273-2.545 10.288-5.463 15.001-8.716-9.808-9.858-15.871-23.444-15.871-38.449z" fill="#fff0af"/><path d="m459.34 163.785c-7.326 0-14.158 2.099-19.943 5.718-3.619 5.784-5.718 12.617-5.718 19.943 0 20.799 16.861 37.66 37.66 37.66 7.326 0 14.158-2.099 19.942-5.718 3.619-5.784 5.718-12.617 5.718-19.943.001-20.799-16.86-37.66-37.659-37.66z" fill="#e6f7fe"/><path d="m107.754 365.597c-10.232 0-19.712 3.201-27.512 8.643-5.442 7.8-8.643 17.28-8.643 27.512 0 26.595 21.56 48.155 48.155 48.155 10.232 0 19.712-3.201 27.512-8.642 5.442-7.8 8.643-17.28 8.643-27.512 0-26.597-21.56-48.156-48.155-48.156z" fill="#e6f7fe"/><path d="m194.726 449.777c-6.063 0-11.042 0-14.503 0 0 16.569 13.432 30 30 30 11.37 0 21.262-6.326 26.35-15.65-4.263 2.326-9.152 3.65-14.35 3.65-12.301 0-22.867-7.406-27.497-18z" fill="#d3effd"/><path d="m192.223 437.777c0-5.198 1.323-10.087 3.65-14.35-9.324 5.088-15.65 14.98-15.65 26.35h14.503c-1.606-3.676-2.503-7.732-2.503-12z" fill="#fff0af"/><path d="m321.575 364.183c-2.31 0-4.517.418-6.577 1.147-.73 2.06-1.147 4.267-1.147 6.577 0 10.893 8.831 19.724 19.724 19.724 2.31 0 4.517-.418 6.577-1.147.729-2.06 1.147-4.267 1.147-6.577 0-10.893-8.831-19.724-19.724-19.724z" fill="#fff6cf"/><path d="m222.223 467.777c5.198 0 10.087-1.323 14.35-3.65 2.326-4.263 3.65-9.152 3.65-14.35-17.265 0-33.51 0-45.497 0 4.63 10.594 15.196 18 27.497 18z" fill="#e6f7fe"/><path d="m210.223 419.777c-5.198 0-10.087 1.323-14.35 3.65-2.326 4.263-3.65 9.152-3.65 14.35 0 4.268.897 8.324 2.503 12h45.497c0-16.569-13.432-30-30-30z" fill="#fff6cf"/><path d="m139.72 214.823c-21.888 0-49.75-17.445-49.75-32.584 0 0-12.238 13.887-46.371 18.199-2.671.337-4.922 1.445-6.665 3.017 5.672 14.5 30.272 33.566 87.256 33.566 17.526 0 31.802-7.197 31.802-7.197-.015-7.501-5.455-15.001-16.272-15.001z" fill="#ffb3b7"/><path d="m36.934 203.455c-5.087 4.587-5.826 13.154.131 18.274 14.927 12.832 44.58 23.094 102.655 23.094 10.879 0 16.288-7.5 16.272-15-5.42 0-11.037 0-16.272 0-56.984 0-87.555-13.73-102.786-26.368z" fill="#ff9a9f"/><path d="m15 318.907c-1.515 0-2.975.229-4.353.647-3.277 3.277-7.525 13.682-1.376 19.831s17.176 1.781 20.082-1.125c.418-1.378.647-2.839.647-4.353 0-8.284-6.716-15-15-15z" fill="#e6f7fe"/><path d="m10 323.907c0-1.515.229-2.975.647-4.353-6.161 1.866-10.647 7.583-10.647 14.353 0 8.284 6.716 15 15 15 6.77 0 12.487-4.486 14.353-10.647-1.378.418-2.839.647-4.353.647-8.284 0-15-6.716-15-15z" fill="#d3effd"/><path d="m326.317 17.223c-1.515 0-2.975.229-4.353.647-3.277 3.277-7.525 13.682-1.376 19.831s17.177 1.781 20.082-1.125c.418-1.378.647-2.839.647-4.353 0-8.284-6.716-15-15-15z" fill="#e6f7fe"/><path d="m321.317 22.223c0-1.515.229-2.975.647-4.353-6.16 1.866-10.647 7.583-10.647 14.353 0 8.284 6.716 15 15 15 6.77 0 12.487-4.486 14.353-10.647-1.378.418-2.839.647-4.353.647-8.284 0-15-6.716-15-15z" fill="#d3effd"/><path d="m88.711 369.527c-2.99 1.292-5.828 2.87-8.469 4.712-7.263 8.213-13.642 22.28-13.642 32.512 0 26.595 21.56 48.155 48.155 48.155 8.835 0 23.624-5 30.707-11.222.007-.008.013-.017.019-.025z" fill="#e6f7fe"/><path d="m71.6 401.751c0-10.232 3.201-19.712 8.642-27.512-12.474 8.702-20.642 23.149-20.642 39.512 0 26.595 21.56 48.155 48.155 48.155 15.279 0 28.886-7.124 37.707-18.222-7.122 4.152-16.872 6.222-25.707 6.222-26.596 0-48.155-21.56-48.155-48.155z" fill="#d3effd"/><path d="m107.754 365.597c-6.767 0-13.202 1.408-19.043 3.93.784 33.516 24.015 62.083 56.77 74.131 6.522-8.216 10.428-18.602 10.428-29.907 0-26.595-21.56-48.154-48.155-48.154z" fill="#fff6cf"/><path d="m139.732 190.23c-4.143 0-7.5-3.358-7.5-7.5v-18.945c0-4.142 3.357-7.5 7.5-7.5s7.5 3.358 7.5 7.5v18.945c0 4.142-3.357 7.5-7.5 7.5z" fill="#ff9a9f"/><path d="m421.68 83.945c-4.143 0-7.5-3.358-7.5-7.5v-9.872c0-4.142 3.357-7.5 7.5-7.5s7.5 3.358 7.5 7.5v9.872c0 4.142-3.358 7.5-7.5 7.5zm7.5 58.405v-9.873c0-4.142-3.357-7.5-7.5-7.5s-7.5 3.358-7.5 7.5v9.873c0 4.142 3.357 7.5 7.5 7.5s7.5-3.357 7.5-7.5zm-28.014-58.392-8.549-4.936c-3.587-2.071-8.174-.842-10.245 2.745s-.842 8.174 2.745 10.245l8.549 4.936c3.587 2.071 8.174.842 10.245-2.745s.843-8.174-2.745-10.245zm57.076 32.953-8.55-4.936c-3.587-2.071-8.174-.842-10.245 2.745s-.842 8.174 2.745 10.245l8.55 4.936c3.587 2.071 8.174.842 10.245-2.745 2.072-3.588.843-8.174-2.745-10.245zm-64.576-4.936-8.549 4.936c-3.587 2.071-4.816 6.658-2.745 10.245 2.071 3.588 6.658 4.816 10.245 2.745l8.549-4.936c3.587-2.071 4.816-6.658 2.745-10.245s-6.657-4.816-10.245-2.745zm57.076-32.953-8.55 4.936c-3.587 2.071-4.816 6.658-2.745 10.245s6.658 4.816 10.245 2.745l8.55-4.936c3.587-2.071 4.816-6.658 2.745-10.245s-6.657-4.816-10.245-2.745z" fill="#d3effd"/></g></svg>